<?xml version="1.0" encoding="utf-8"?>
<!-- Generator: Adobe Illustrator 22.1.0, SVG Export Plug-In . SVG Version: 6.00 Build 0)  -->
<svg version="1.1" id="Layer_1" xmlns="http://www.w3.org/2000/svg" xmlns:xlink="http://www.w3.org/1999/xlink" x="0px" y="0px"
	 viewBox="0 0 109 78.3" style="enable-background:new 0 0 109 78.3;" xml:space="preserve">
<style type="text/css">
	.st0{fill:#FF9292;stroke:#FF9292;stroke-miterlimit:10;}
	.st1{fill:#FF9292;}
</style>
<g>
	<g>
		<path class="st0" d="M61.8,23.4c0,0.4-1.1,1.9-3.4,4.6c-1.9,2.2-3.4,3.3-4.5,3.3c-0.7,0-1.3-0.3-1.7-0.8c-0.5-0.6-0.7-1.2-0.7-2
			c0-0.6,0.3-1.5,0.9-2.6L52,26.5c-1.4,1.8-2.5,3.1-3.2,3.7c-0.7,0.7-1.4,1.1-2.1,1.1c-0.7,0-1.3-0.3-1.7-0.8
			c-0.5-0.5-0.7-1.2-0.7-2c0-0.9,0.3-1.9,1.1-3.1l4.3-7.2c0.5,0.1,0.9,0.2,1.2,0.2c0.3,0,0.8-0.1,1.6-0.2l-5.6,9.2
			c-0.6,0.9-0.8,1.8-0.8,2.5c0,0.7,0.3,1.1,0.9,1.1c1.6,0,4.1-2.9,7.6-8.8l2.3-3.9c0.5,0.1,0.9,0.2,1.2,0.2c0.4,0,0.9-0.1,1.7-0.2
			l-3.7,6.1c-1.8,2.9-2.7,4.8-2.7,5.6c0,0.7,0.3,1,1,1c1.3,0,3.3-2,6.1-5.9l0.7-1l0.4-0.5c0.1-0.2,0.2-0.2,0.2-0.2
			C61.8,23.3,61.8,23.3,61.8,23.4z"/>
		<path class="st0" d="M77.9,23.4c0,0.3-0.8,1.3-2.5,3.2c-1.9,2.1-4.3,4-7.3,5.6l-1.2,2.1c-2.1,3.9-4.5,6.9-7.1,9.1
			c-2.5,2-4.7,3.1-6.6,3.1c-0.7,0-1.2-0.2-1.7-0.6c-0.4-0.4-0.7-0.9-0.7-1.5c0-3.2,3.6-6.5,10.8-9.8c1.6-0.7,2.6-1.2,3-1.5l4-7.3
			c-1.7,2.3-3,3.8-3.7,4.4s-1.4,1-2.2,1c-0.8,0-1.5-0.4-2.1-1.1s-0.9-1.6-0.9-2.6c0-2.7,1.8-5.2,5.3-7.4c2.4-1.5,4.2-2.2,5.6-2.2
			c0.9,0,1.4,0.5,1.4,1.5c0,0.3-0.1,0.6-0.2,1l1.3-2.4c0.4,0.1,0.8,0.2,1.1,0.2c0.4,0,1-0.1,1.8-0.2c-0.1,0.1-0.8,1.3-2.1,3.5
			l-5.8,10c2-1.2,3.7-2.3,4.9-3.4s2.6-2.6,4.2-4.7c0.2-0.3,0.4-0.5,0.5-0.5C77.8,23.3,77.9,23.3,77.9,23.4z M64.4,33.6
			c-0.3,0.2-1.2,0.6-2.6,1.3c-7.1,3.5-10.7,6.7-10.7,9.5c0,0.5,0.2,0.9,0.5,1.2c0.4,0.3,0.8,0.5,1.4,0.5c1.7,0,3.4-0.9,5-2.6
			c1.6-1.8,3.7-4.9,6.1-9.5L64.4,33.6z M71.8,19.6c0-0.8-0.4-1.2-1.1-1.2c-1.4,0-3.3,1.4-5.6,4.2c-2.3,2.8-3.5,5.1-3.5,6.8
			c0,1,0.5,1.6,1.4,1.6c0.9,0,2.5-1.4,4.7-4.2C70.5,23.2,71.8,20.8,71.8,19.6z"/>
		<path class="st0" d="M94.4,23.4c0,0.3-1.1,1.8-3.4,4.6c-1.8,2.2-3.3,3.3-4.4,3.3c-0.7,0-1.3-0.3-1.8-0.8c-0.5-0.5-0.7-1.2-0.7-2
			c0-0.8,0.2-1.8,0.7-2.7c-1.6,2.2-2.8,3.7-3.6,4.4c-0.8,0.8-1.6,1.1-2.4,1.2c-0.8,0-1.5-0.4-2.1-1.1c-0.6-0.7-0.8-1.6-0.8-2.7
			c0-3,2.1-5.7,6.3-8c1.9-1,3.4-1.6,4.5-1.6c1,0,1.5,0.5,1.5,1.4c0,0.3-0.1,0.6-0.2,1.1l1.2-2.3c0.5,0.1,0.9,0.2,1.2,0.2
			c0.4,0,1-0.1,1.6-0.2L88,25.1c-1.4,2.4-2.2,4-2.2,4.8c0,0.7,0.3,1.1,0.9,1.1c0.6,0,1.6-0.7,3-2.2c1.4-1.4,2.8-3.2,4.2-5.3
			c0.1-0.2,0.2-0.2,0.3-0.2C94.3,23.2,94.4,23.3,94.4,23.4z M87.9,19.5c0-0.8-0.4-1.1-1.1-1.1c-1.4,0-3.3,1.4-5.7,4.2
			c-2.3,2.8-3.5,5.1-3.5,6.8c0,1,0.5,1.5,1.4,1.5c1.1,0,2.9-1.8,5.6-5.4C86.8,22.6,87.9,20.6,87.9,19.5z"/>
		<path class="st0" d="M107.8,23.4c0,0.1-0.5,0.7-1.4,1.7c-1.2,1.3-2.3,2-3.4,2c-1.2,0-1.8-0.7-1.8-2.1c0-0.4,0.1-1,0.3-1.7
			c-1,0.9-1.8,1.7-2.4,2.6c-0.6,0.8-1.7,2.6-3.2,5.2C95.1,31,94.6,31,94.5,31c-0.1,0-0.5,0-1.4,0.1l3.8-6.2c1.9-3.1,2.9-5.1,2.9-5.8
			c0-0.4-0.2-0.7-0.5-0.7c-0.9,0-2.5,1.7-4.8,5.1c-0.1,0.2-0.3,0.3-0.4,0.3c-0.1,0-0.1-0.1-0.1-0.1c0-0.1,0-0.1,0.1-0.2l0.4-0.6
			c2.4-3.2,4-4.8,4.9-4.8c1.3,0,1.9,0.8,1.9,2.4c0,1.2-0.6,2.8-1.9,4.8c0.8-0.9,1.6-1.7,2.3-2.3c0.6-1.4,1.3-2.6,2.2-3.5
			c0.9-0.9,1.7-1.4,2.4-1.4c0.5,0,0.7,0.2,0.7,0.6c0,0.8-1.1,1.8-3.3,3.2c-0.3,0.2-0.9,0.5-1.5,1l-0.3,0.2c-0.2,0.7-0.3,1.3-0.3,1.8
			c0,1.3,0.5,2,1.5,2c1.2,0,2.6-1,4-3c0.3-0.3,0.5-0.5,0.6-0.5C107.7,23.2,107.8,23.3,107.8,23.4z"/>
	</g>
	<g>
		<path class="st0" d="M58.9,66.9c0,0.1-0.1,0.3-0.2,0.4l-1,1.4c-2.9,4.1-5.1,6.1-6.6,6.1c-0.8,0-1.4-0.3-1.8-0.8
			c-0.5-0.5-0.7-1.2-0.7-2c0-1.1,0.6-2.5,1.8-4.3c1.9-2.7,2.8-4.4,2.8-4.9c0-0.6-0.3-0.9-1-0.9c-0.9,0-2.2,0.9-3.8,2.8
			c-1.6,1.8-3.7,5.1-6.4,10c-0.5-0.1-0.9-0.1-1.2-0.1c-0.3,0-0.8,0-1.4,0.1l3.4-6.2c0.5-0.9,1.2-2.2,2.2-3.9
			c0.5-0.8,2.1-3.5,4.8-8.1l3.6-6c0.5,0.1,0.9,0.1,1.2,0.1c0.6,0,1.2-0.1,1.8-0.2c-1.6,2.6-4,6.5-7.3,11.7c-0.1,0.2-1.3,2.2-3.6,6
			c2.9-4.4,5.3-6.5,7-6.5c0.7,0,1.2,0.3,1.7,0.9s0.7,1.3,0.7,2.1c0,1.1-0.7,2.6-2.1,4.7c-1.5,2.3-2.3,3.7-2.3,4.3c0,0.7,0.3,1,1,1
			c1.2,0,3.2-2,6.1-5.9l0.7-1l0.4-0.5C58.6,66.9,58.7,66.8,58.9,66.9C58.8,66.8,58.9,66.9,58.9,66.9z"/>
		<path class="st0" d="M75.4,67c0,0.3-1.1,1.8-3.4,4.6c-1.8,2.2-3.3,3.3-4.4,3.3c-0.7,0-1.3-0.3-1.8-0.8c-0.5-0.5-0.7-1.2-0.7-2
			c0-0.8,0.3-1.8,0.8-2.7c-1.6,2.2-2.8,3.7-3.6,4.4s-1.6,1.1-2.4,1.1c-0.8,0-1.5-0.4-2.1-1.1S57,72.2,57,71.1c0-3,2.1-5.7,6.4-8
			c1.9-1,3.4-1.5,4.5-1.5c1,0,1.5,0.5,1.5,1.4c0,0.3-0.1,0.6-0.2,1.1l1.2-2.3c0.5,0.1,0.9,0.2,1.2,0.2c0.4,0,1-0.1,1.6-0.2L69,68.6
			c-1.4,2.4-2.2,4-2.2,4.8c0,0.7,0.3,1.1,0.9,1.1c0.6,0,1.6-0.7,3-2.1c1.4-1.4,2.8-3.2,4.2-5.3c0.1-0.2,0.2-0.2,0.3-0.2
			C75.3,66.8,75.4,66.9,75.4,67z M68.9,63.1c0-0.8-0.4-1.1-1.1-1.1c-1.4,0-3.3,1.4-5.7,4.2c-2.3,2.8-3.5,5.1-3.5,6.8
			c0,1,0.5,1.5,1.4,1.5c1.1,0,2.9-1.8,5.6-5.4C67.8,66.2,68.9,64.2,68.9,63.1z"/>
		<path class="st0" d="M87.1,67c0,0.2-1.1,1.5-3.3,3.9c-2.4,2.6-4.5,3.9-6.1,3.9c-1.1,0-2-0.4-2.8-1.3s-1.2-1.8-1.2-3
			c0-1.3,0.5-2.7,1.6-4.1s2.5-2.6,4.3-3.6c1.5-0.9,2.8-1.3,3.7-1.3c1.2,0,1.7,0.7,1.7,2.1c0,1.1-0.4,2.2-1.1,3.2s-1.4,1.6-2.2,1.6
			c-0.7,0-1.1-0.4-1.1-1.1c0-0.8,0.7-1.6,2.2-2.3c1.1-0.5,1.7-1.3,1.7-2.2c0-0.7-0.4-1.1-1.1-1.1c-1.3,0-2.9,1.3-4.8,3.9
			c-1.9,2.6-2.8,4.7-2.8,6.5c0,1.5,0.7,2.2,2.1,2.2c2.2,0,5.1-2.4,8.8-7.3c0.2-0.3,0.4-0.4,0.4-0.4C87,66.8,87.1,66.9,87.1,67z"/>
		<path class="st0" d="M99.5,50.4c-0.1,0.2-0.3,0.5-0.6,1c-0.4,0.7-1,1.6-1.8,2.9c-0.4,0.7-1,1.7-1.8,3l-4,6.5
			c-1.3,2.2-2.5,4.1-3.4,5.9c-1,2-1.9,3.5-2.5,4.6L85,74.7c-0.4-0.1-0.8-0.1-1.2-0.1c-0.3,0-0.9,0-1.5,0.1c0.4-0.6,0.8-1.3,1.2-2.1
			l2.7-4.7c0.4-0.7,1-1.8,1.8-3.2l8.6-14.4c0.6,0.1,1.1,0.2,1.4,0.2S98.8,50.5,99.5,50.4z M101.5,67c0,0-0.1,0.2-0.2,0.4l-1,1.4
			c-3,4.1-5.2,6.1-6.7,6.1c-0.7,0-1.3-0.2-1.8-0.7c-0.5-0.5-0.8-1-0.8-1.5c0-0.5,0.4-1.6,1.3-3.4l0-0.1c0.3-0.6,0.4-1,0.4-1.3
			c0-0.3-0.3-0.7-0.8-1c-0.6,0.3-1.1,0.4-1.5,0.4c-0.5,0-0.8-0.2-0.8-0.5c0-0.3,0.3-0.4,0.8-0.4c0.5,0,1,0.1,1.4,0.2
			c0.8-0.3,2-1.5,3.8-3.5c0.9-1.1,1.9-1.6,2.8-1.6c1.2,0,1.8,0.6,1.8,1.7c0,0.7-0.3,1.5-0.9,2.2s-1.2,1.1-1.8,1.1
			c-0.7,0-1-0.3-1-0.9c0-0.6,0.5-1.2,1.5-1.8c0.4-0.3,0.6-0.6,0.6-1.1c0-0.4-0.2-0.6-0.7-0.6c-0.7,0-1.5,0.6-2.5,1.8
			c-1.3,1.5-2.4,2.4-3.2,2.8c1.6,0.8,2.4,1.6,2.4,2.6c0,0.5-0.4,1.6-1.1,3.2c-0.3,0.7-0.5,1.1-0.5,1.4c0,0.4,0.3,0.6,0.8,0.6
			c1.5,0,3.9-2.5,7.2-7.4c0.1-0.2,0.2-0.2,0.3-0.2C101.5,66.8,101.5,66.9,101.5,67z"/>
	</g>
	<g>
		<path class="st1" d="M51.6,1.7c-1.1,0.4-2.2,0.7-3.3,1.1l-1.6,0.5l-0.8,0.3l-0.4,0.1l-0.3,0.1l-0.6,0.3l-0.7,0.4
			C43.5,4.7,43,5,42.7,5.3c-0.8,0.6-1.5,1.2-2,1.9c-1.4,1-2.7,2.4-3.5,4c-0.4,0.8-0.7,1.6-1,2.5c-0.3,0.9-0.5,1.9-0.6,2.9
			c-0.3,2-0.3,3.9-0.1,5.9c0.1,0.5,0.1,0.9,0.2,1.5l0.3,1.7l0.6,3.3l1.1,6.6l0.6,3.3c0.2,1.2,0.3,2.5,0.4,3.7c0.1,2.5-0.1,5-0.6,7.4
			c-0.3,1.2-0.6,2.4-1,3.6l-0.3,0.9l-0.3,0.8c-0.2,0.6-0.5,1.1-0.7,1.7c-2,4.4-4.9,8.4-8.4,11.8c-0.9,0.8-1.8,1.7-2.7,2.4l-1.3,1.1
			c-0.5,0.4-0.9,0.7-1.4,1.1c-1,0.7-1.9,1.4-3,2.1c-0.5,0.3-1.1,0.6-1.6,0.9c-0.5,0.3-1.1,0.7-1.7,0.8c-2.5,0.6-5,0.9-7.4,0.7
			c-2.3-0.2-4.6-0.4-6.9-0.7c2.1-0.9,4.3-1.7,6.4-2.5c2.1-0.7,3.8-1.8,5.4-3c0.4-0.3,0.9-0.5,1.3-0.7c0.5-0.2,0.9-0.5,1.3-0.7
			c0.9-0.5,1.7-1.1,2.5-1.7c0.4-0.3,0.8-0.6,1.2-1l1.3-1.1c0.8-0.7,1.6-1.3,2.3-2c3-2.8,5.4-6.2,7.1-10c0.2-0.5,0.4-0.9,0.6-1.4
			l0.3-0.7l0.3-0.7c0.3-0.9,0.6-1.9,0.8-2.8c0.4-1.9,0.6-3.9,0.5-5.9c0-1-0.1-2-0.3-3l-0.6-3.3L30.5,30L30,26.7l-0.3-1.7
			c-0.1-0.5-0.2-1.2-0.3-1.8c-0.3-2.5-0.2-5,0.1-7.5c0.2-1.2,0.4-2.5,0.8-3.7c0.3-1.2,0.8-2.5,1.5-3.7c0.6-1.2,1.4-2.3,2.3-3.3
			c0.4-0.5,0.9-1,1.4-1.5c0.5-0.5,0.9-1,1.5-1.3c1.2-0.6,2.5-1.1,3.7-1.4c0.6-0.2,1.3-0.3,1.9-0.3l1-0.1c0.3,0,0.7,0,1,0l0.5,0
			l0.4,0.1l0.9,0.1L48.2,1C49.3,1.2,50.5,1.4,51.6,1.7z"/>
	</g>
</g>
</svg>
