<?xml version="1.0" encoding="utf-8"?>
<!-- Generator: Adobe Illustrator 22.1.0, SVG Export Plug-In . SVG Version: 6.00 Build 0)  -->
<svg version="1.1" id="Layer_1" xmlns="http://www.w3.org/2000/svg" xmlns:xlink="http://www.w3.org/1999/xlink" x="0px" y="0px"
	 viewBox="0 0 19 23.8" style="enable-background:new 0 0 19 23.8;" xml:space="preserve">
<style type="text/css">
	.st0{fill:#FF9292;}
</style>
<g>
	<g>
		<path class="st0" d="M15.8,0.7l-1.9,0.6c-0.5,0.2-1,0.6-1.4,1c-0.9,0.6-1.4,1.6-1.5,2.8c-0.1,0.6-0.1,1.2,0,1.8
			c0.1,0.6,0.2,1.3,0.3,1.9l0.3,1.9l0.2,1c0.1,0.3,0.1,0.7,0.1,1.1c0.1,1.4-0.3,2.9-0.9,4.1c-0.6,1.3-1.4,2.4-2.4,3.4
			C8.3,20.6,8,20.8,7.7,21c-0.3,0.2-0.5,0.4-0.8,0.6c-0.6,0.4-1.1,0.8-1.8,1.1C4.4,22.9,3.7,23,3,23c-0.7,0-1.3-0.1-2-0.1
			c0.6-0.2,1.3-0.5,1.9-0.7C3.5,22,4,21.7,4.5,21.4c0.5-0.3,1-0.6,1.5-0.9c0.2-0.2,0.5-0.4,0.7-0.6c0.2-0.2,0.5-0.4,0.7-0.6
			c0.9-0.8,1.6-1.9,2.1-3c0.5-1.1,0.8-2.3,0.7-3.5c0-0.3,0-0.6-0.1-0.9l-0.2-1L9.7,9C9.6,8.4,9.5,7.8,9.4,7c-0.1-0.7-0.1-1.4,0-2.2
			c0.1-0.7,0.3-1.4,0.6-2.1C10.5,2.1,11,1.5,11.6,1c0.7-0.4,1.4-0.6,2.2-0.6C14.5,0.5,15.1,0.6,15.8,0.7z"/>
	</g>
	<g>
		<path class="st0" d="M18.1,1l-1.9,0.6c-0.5,0.2-1,0.6-1.4,1c-0.9,0.6-1.4,1.6-1.5,2.8c-0.1,0.6-0.1,1.2,0,1.8
			c0.1,0.6,0.2,1.3,0.3,1.9l0.3,1.9l0.2,1c0.1,0.3,0.1,0.7,0.1,1.1c0.1,1.4-0.3,2.9-0.9,4.1c-0.6,1.3-1.4,2.4-2.4,3.4
			c-0.2,0.2-0.5,0.5-0.8,0.7c-0.3,0.2-0.5,0.4-0.8,0.6c-0.6,0.4-1.1,0.8-1.8,1.1c-0.7,0.2-1.4,0.3-2.1,0.3c-0.7,0-1.3-0.1-2-0.1
			c0.6-0.2,1.3-0.5,1.9-0.7c0.6-0.2,1.1-0.5,1.6-0.8c0.5-0.3,1-0.6,1.5-0.9c0.2-0.2,0.5-0.4,0.7-0.6c0.2-0.2,0.5-0.4,0.7-0.6
			c0.9-0.8,1.6-1.9,2.1-3c0.5-1.1,0.8-2.3,0.7-3.5c0-0.3,0-0.6-0.1-0.9l-0.2-1l-0.3-1.9c-0.1-0.7-0.2-1.3-0.3-2
			c-0.1-0.7-0.1-1.4,0-2.2c0.1-0.7,0.3-1.4,0.6-2.1c0.4-0.7,0.9-1.3,1.5-1.7c0.7-0.4,1.4-0.6,2.2-0.6C16.8,0.8,17.4,0.9,18.1,1z"/>
	</g>
</g>
</svg>
